<?xml version="1.0" encoding="iso-8859-1"?>
<!-- Generator: Adobe Illustrator 19.0.0, SVG Export Plug-In . SVG Version: 6.00 Build 0)  -->
<svg version="1.1" id="Capa_1" xmlns="http://www.w3.org/2000/svg" xmlns:xlink="http://www.w3.org/1999/xlink" x="0px" y="0px"
	 viewBox="0 0 480.011 480.011" style="enable-background:new 0 0 480.011 480.011;" xml:space="preserve">
<g>
	<g>
		<path d="M471.806,416.668c-1.008-0.44-2.096-0.667-3.196-0.668h-65.272v-48h65.272c4.418-0.002,7.998-3.586,7.996-8.004
			c-0.001-1.1-0.228-2.188-0.668-3.196c-19.238-44.41-70.835-64.816-115.245-45.578c-4.652,2.015-9.121,4.43-13.355,7.218V304h-16
			v27.72c-5.71,6.049-10.534,12.877-14.328,20.28h-65.672v-58.232l42.528-14.176c3.268-1.089,5.473-4.147,5.472-7.592v-24h40
			c22.08,0.026,39.974,17.92,40,40h16c-0.035-30.913-25.087-55.965-56-56h-56v-26.824c24.719-14.272,39.962-40.633,40-69.176V96h40
			V80h-40V48c-0.026-26.499-21.501-47.974-48-48h-64c-26.499,0.026-47.974,21.501-48,48v32h-32c-4.418,0-8,3.582-8,8v48
			c0,4.418,3.582,8,8,8h8v40c0,2.674,1.335,5.172,3.56,6.656l24,16l8.88-13.312l-20.44-13.624V144h8.408
			c2.614,25.565,17.341,48.32,39.592,61.176V232h-56c-30.913,0.035-55.965,25.087-56,56h16c0.026-22.08,17.92-39.974,40-40h40v24
			c-0.001,3.445,2.204,6.503,5.472,7.592l42.528,14.176V352h-65.672c-3.794-7.403-8.618-14.231-14.328-20.28V304h-16v14.4
			c-40.688-26.508-95.161-15.013-121.67,25.674c-26.508,40.688-15.013,95.161,25.674,121.67C57.622,475.047,74.296,480,91.338,480
			c33.052-0.021,63.305-18.56,78.328-48H317.01c22.052,43.261,74.998,60.454,118.259,38.402
			c18.153-9.253,32.529-24.524,40.669-43.202C477.706,423.151,475.856,418.435,471.806,416.668z M163.338,128h-24V96h24V128z
			 M283.338,266.232l-20.408,6.808L279.618,248h3.72V266.232z M219.338,232v-19.688c15.622,4.917,32.378,4.917,48,0V232H219.338z
			 M179.338,48c0-17.673,14.327-32,32-32h64c17.673,0,32,14.327,32,32v32h-128V48z M179.338,136V96h128v40c0,35.346-28.654,64-64,64
			C207.992,200,179.338,171.346,179.338,136z M203.338,266.232V248h3.72l16.688,25.04L203.338,266.232z M226.282,248h34.112
			l-17.056,25.6L226.282,248z M355.415,451.909c-11.479-7.658-20.512-18.458-26.021-31.109c-1.272-2.914-4.148-4.798-7.328-4.8
			H164.61c-3.18,0.002-6.056,1.886-7.328,4.8c-15.906,36.445-58.344,53.095-94.789,37.189
			C26.048,442.083,9.398,399.645,25.304,363.2c11.458-26.254,37.389-43.218,66.034-43.2c28.612,0.018,54.499,16.976,65.944,43.2
			c1.272,2.914,4.148,4.798,7.328,4.8h157.456c3.179-0.002,6.056-1.886,7.328-4.8c15.857-36.413,58.23-53.078,94.643-37.221
			c12.651,5.509,23.451,14.542,31.109,26.021h-59.808c-4.418,0-8,3.582-8,8v64c0,4.418,3.582,8,8,8h59.808
			C433.104,465.038,388.453,473.951,355.415,451.909z"/>
	</g>
</g>
<g>
	<g>
		<path d="M135.458,361.144l-40-24c-2.535-1.523-5.705-1.523-8.24,0l-40,24c-2.375,1.427-3.843,3.981-3.88,6.752l-0.664,50.664
			c-0.041,3.012,1.613,5.792,4.28,7.192l40.672,21.336c2.472,1.294,5.44,1.206,7.832-0.232l40-24
			c2.407-1.446,3.879-4.048,3.88-6.856v-48C139.338,365.192,137.865,362.59,135.458,361.144z M123.338,411.472l-32.264,19.36
			L58.73,413.864l0.552-41.296l32.056-19.24l32,19.2V411.472z"/>
	</g>
</g>
<g>
	<g>
		<rect x="163.338" y="384" width="160" height="16"/>
	</g>
</g>
<g>
	<g>
		<rect x="235.338" y="112" width="16" height="40"/>
	</g>
</g>
<g>
	<g>
		<rect x="267.338" y="320" width="48" height="16"/>
	</g>
</g>
<g>
</g>
<g>
</g>
<g>
</g>
<g>
</g>
<g>
</g>
<g>
</g>
<g>
</g>
<g>
</g>
<g>
</g>
<g>
</g>
<g>
</g>
<g>
</g>
<g>
</g>
<g>
</g>
<g>
</g>
</svg>
