<svg height="512pt" viewBox="0 0 512 512.01698" width="512pt" xmlns="http://www.w3.org/2000/svg"><path d="m255.847656 341.449219c4.710938 0 8.53125-3.820313 8.53125-8.53125 0-4.714844-3.820312-8.535157-8.53125-8.535157-.332031 0-34.707031-.1875-118.433594-8.53125-3.105468-.449218-6.203124.839844-8.070312 3.355469-1.867188 2.519531-2.207031 5.855469-.882812 8.695313 1.324218 2.839844 4.097656 4.726562 7.226562 4.914062 84.78125 8.472656 118.699219 8.644532 120.109375 8.644532zm0 0"/><path d="m.0078125 494.949219c0 9.382812 7.5742185 17.003906 16.9570315 17.066406h9.804687c8.46875.121094 15.6875-6.113281 16.800781-14.507813l14.789063-110.933593c.660156-4.902344-.832031-9.855469-4.089844-13.578125-3.257812-3.726563-7.96875-5.863282-12.917969-5.859375h-.117187l13.046875-76.375c84.386719 8.234375 205.710938 16.351562 206.941406 16.4375 10.796875.59375 21.472656 2.546875 31.777344 5.820312l-9.777344 53.929688c-.671875 2.398437-1.128906 4.851562-1.367187 7.328125-1.425781 16.417968 6.308593 29.152344 18.773437 30.960937 5.488282.800781 9.644532 1.484375 14.695313 2.320313 15.785156 2.558594 39.644531 6.535156 135.945312 19.292968.769531.109376 1.550781.164063 2.328125.164063 8.335938.027344 15.457032-6 16.8125-14.226563l41.351563-240.714843c.777343-4.625-.382813-9.363281-3.203125-13.105469-2.820313-3.742188-7.054688-6.160156-11.714844-6.683594l-133.902344-14.59375 5.519532-42.113281c.152343-1.089844.351562-2.269531.554687-3.523437 3.585937-12.609376 1.398437-26.160157-5.972656-37-9.480469-12.03125-27.527344-18.859376-55.269531-20.90625l-2.269532-.136719c-58.351562-3.890625-89.601562-5.972657-114.867187-7.9375-.351563-.179688-.71875-.335938-1.09375-.457031-1.03125-.160157-2.082031-.125-3.097657.101562-25.738281-2.050781-46.277343-4.078125-85.488281-7.996094l1.332031-7.757812c.789063-4.648438-2.335937-9.054688-6.984374-9.84375-4.648438-.789063-9.054688 2.339844-9.84375 6.984375l-61.558594 360.039062c-8.210938.191407-15.121094 6.207031-16.445313 14.3125l-7.328125 43.816407c-.082031.464843-.12499975.9375-.1210935 1.410156zm65.9374995-272.394531c24.847657 2.425781 52.90625 4.832031 80.070313 7.03125l-8.773437 51.320312c-27.152344-2.191406-55.183594-4.589844-80.058594-6.972656zm11.90625-69.640626c24.566407 2.398438 52.589844 4.890626 80.039063 7.230469l-8.984375 52.554688c-27.144531-2.191407-55.167969-4.589844-80.078125-7.003907zm11.425782-66.796874c24.746094 2.398437 52.769531 4.777343 80.082031 6.945312l-8.582031 50.191406c-27.382813-2.320312-55.40625-4.800781-80.042969-7.199218zm208.742187 16.296874c46.34375 3.210938 48.691407 19.203126 49.003907 25.414063l-5.367188 40.960937c-10.605469-8.464843-27.484375-13.457031-50.882812-15.078124l-1.980469-.148438 8.535156-51.199219zm179.105469 170.410157-69.027344-8.601563 8.621094-51.199218 69.332031 7.9375zm-11.699219 67.96875-68.753906-8.59375 8.59375-51.136719 68.964844 8.601562zm-157.953125-40.191407c-.625-.367187-1.292968-.652343-1.988281-.851562-12.609375-5.140625-25.957031-8.25-39.542969-9.207031l8.535156-51.371094c38.988282 3.078125 53.757813 15.359375 54.613282 25.273437l-6.027344 45.925782c-4.722656-3.953125-9.96875-7.242188-15.589844-9.769532zm24.867188-60.875c-9.8125-7.871093-26.582032-14.976562-55.015625-17.445312l8.652343-51.890625 3.578126.273437c46 3.191407 48.195312 18.699219 48.519531 25.363282zm-72.066406-18.699218c-18.601563-1.289063-54.476563-3.832032-94.242188-6.953125l8.96875-52.480469c37.839844 3.15625 72.816406 5.898438 93.9375 7.519531zm-2.824219 16.914062-8.53125 51.320313c-18.695313-1.296875-54.671875-3.847657-94.523438-6.980469l8.769531-51.320312c39.289063 3.082031 74.925782 5.617187 94.242188 6.964843zm87.714843 35.644532 43.195313 5.382812-8.617187 51.117188-41.328126-5.171876zm46.019532-11.460938-43.800782-5.460938 6.664063-50.824218 45.730469 5.230468zm-108.140625-177.851562c-19.628907-1.324219-54.902344-3.773438-93.707031-6.765626l5.804687-33.964843c21.894531 1.65625 49.109375 3.492187 93.617187 6.460937zm-2.824219 16.921874-8.535156 50.996094c-20.632813-1.578125-55.722656-4.320312-93.867188-7.492187l8.59375-50.296875c38.425782 2.96875 73.601563 5.453125 93.808594 6.792968zm39.449219 235.316407c.035156 1.503906-.628907 2.945312-1.796875 3.898437-1.164063.957032-2.707032 1.320313-4.175782.988282-2.945312-.050782-5.882812.363281-8.695312 1.230468l3.976562-21.921875c5.953126 3.175781 9.957032 9.09375 10.691407 15.804688zm-16.582031 51.863281c-2.730469-.398438-4.597657-5.734375-4.265626-11.828125l1.136719-6.269531c1.097657-6.382813 6.347657-11.230469 12.796875-11.820313h.429688c10.640625.695313 20.269531-6.300781 22.894531-16.640625l40.804687 5.121094-8.644531 51.414062c-28.519531-4.046874-40.804687-6.066406-50.132812-7.605468-5.152344-.859375-9.402344-1.566406-15.019531-2.371094zm150.445312 21.582031c-28.734375-3.804687-50.878906-6.828125-68.386719-9.242187l8.695313-51.6875 68.691406 8.585937zm35.4375-205.867187-69.402344-7.945313 5.804688-34.480469 69.570312 7.574219zm-80.597656-44.28125-5.785156 34.390625-46.34375-5.296875 4.496093-34.28125zm-58.769532-94.199219c4.179688 7.160156 5.109376 15.761719 2.5625 23.648437-.242187 1.40625-.460937 2.746094-.640624 4.050782l-.949219 7.222656c-10.539063-8.390625-27.304688-13.375-50.449219-15.097656l5.71875-34.285156h.714844c22.027344 1.652343 36.898437 6.636718 43.042968 14.460937zm-171.519531-23.421875-5.8125 33.988281c-27.253906-2.160156-55.285156-4.53125-80.082031-6.929687l5.910156-34.636719c36.464844 3.652344 56.953125 5.683594 79.960938 7.578125zm-161.007812 385.203125 7.210937-43.144531c.007813-.046875.050782-.078125.09375-.078125l17.066406.113281-14.675781 110.667969h-9.695312zm0 0"/><path d="m383.941406 118.757812c-.203125 2.253907.5 4.496094 1.953125 6.234376 1.453125 1.734374 3.539063 2.824218 5.792969 3.023437l102.503906 8.679687c.242188.011719.484375.011719.726563 0 4.710937.195313 8.691406-3.46875 8.886719-8.179687.195312-4.714844-3.46875-8.691406-8.179688-8.886719l-102.460938-8.679687c-2.265624-.21875-4.523437.484375-6.261718 1.957031-1.734375 1.46875-2.804688 3.578125-2.960938 5.851562zm0 0"/><path d="m169.820312 367.085938 85.335938 8.394531c.289062 0 .570312.042969.851562.042969 4.546876 0 8.296876-3.5625 8.523438-8.105469.230469-4.542969-3.144531-8.464844-7.667969-8.917969l-85.335937-8.363281c-4.691406-.46875-8.875 2.949219-9.347656 7.644531-.46875 4.691406 2.949218 8.875 7.640624 9.347656zm0 0"/><path d="m461.507812 82.277344-68.378906-5.539063c-4.695312-.378906-8.8125 3.121094-9.191406 7.820313-.378906 4.699218 3.121094 8.816406 7.820312 9.195312l68.375 5.539063h.691407c4.714843.1875 8.6875-3.480469 8.875-8.191407.191406-4.714843-3.476563-8.6875-8.191407-8.875zm0 0"/></svg>